# xmcd
#
# Track frame offsets: 
#        150
#        18375
#        31420
#        47043
#        62774
#        79296
#        99429
#        118859
#        134778
#        151218
#        165466
#
# Disc length: 2358 seconds
#
# Revision: 0
# Processed by: cddbd v1.5.2PL0 Copyright (c) Steve Scherf et al.
# Submitted via: ExactAudioCopy v0.95b4
#
DISCID=8f09340b
DTITLE=K.D. Lang - Watershed
DYEAR=2008
DGENRE=Folk/Rock
TTITLE0=I dream of spring
TTITLE1=Je fais la planche
TTITLE2=Coming Home
TTITLE3=Once in a while
TTITLE4=Thread
TTITLE5=Close your eyes
TTITLE6=Sunday
TTITLE7=Flame of the unspired
TTITLE8=Upstream
TTITLE9=Shadow and the Frame
TTITLE10=Jealous Dog
EXTD=
EXTT0=
EXTT1=
EXTT2=
EXTT3=
EXTT4=
EXTT5=
EXTT6=
EXTT7=
EXTT8=
EXTT9=
EXTT10=
PLAYORDER=
